<svg width="720" height="900" viewBox="0 0 720 900" fill="none" xmlns="http://www.w3.org/2000/svg">
  <rect width="720" height="900" rx="32" fill="#F6F0E7"/>
  <rect x="64" y="56" width="592" height="788" rx="28" fill="#FFF9F1" stroke="#E4D8C6"/>
  <rect x="104" y="104" width="170" height="170" rx="24" fill="#E8D6C8"/>
  <rect x="304" y="116" width="204" height="22" rx="11" fill="#302721"/>
  <rect x="304" y="152" width="144" height="14" rx="7" fill="#B85C38"/>
  <rect x="304" y="184" width="280" height="12" rx="6" fill="#9D9187"/>
  <rect x="304" y="208" width="242" height="12" rx="6" fill="#9D9187"/>
  <rect x="104" y="322" width="172" height="16" rx="8" fill="#302721"/>
  <rect x="104" y="356" width="512" height="12" rx="6" fill="#B4A79A"/>
  <rect x="104" y="380" width="466" height="12" rx="6" fill="#B4A79A"/>
  <rect x="104" y="404" width="430" height="12" rx="6" fill="#B4A79A"/>
  <rect x="104" y="456" width="172" height="16" rx="8" fill="#302721"/>
  <rect x="104" y="490" width="116" height="12" rx="6" fill="#B85C38"/>
  <rect x="246" y="490" width="116" height="12" rx="6" fill="#D4C1AF"/>
  <rect x="388" y="490" width="116" height="12" rx="6" fill="#D4C1AF"/>
  <rect x="104" y="538" width="172" height="16" rx="8" fill="#302721"/>
  <rect x="104" y="572" width="130" height="12" rx="6" fill="#B85C38"/>
  <rect x="104" y="598" width="512" height="12" rx="6" fill="#B4A79A"/>
  <rect x="104" y="622" width="470" height="12" rx="6" fill="#B4A79A"/>
  <rect x="104" y="662" width="130" height="12" rx="6" fill="#B85C38"/>
  <rect x="104" y="688" width="512" height="12" rx="6" fill="#B4A79A"/>
  <rect x="104" y="712" width="426" height="12" rx="6" fill="#B4A79A"/>
  <rect x="104" y="752" width="130" height="12" rx="6" fill="#B85C38"/>
  <rect x="104" y="778" width="512" height="12" rx="6" fill="#B4A79A"/>
  <rect x="104" y="802" width="448" height="12" rx="6" fill="#B4A79A"/>
</svg>
